<?xml version="1.0" standalone="no"?>
<!DOCTYPE svg PUBLIC "-//W3C//DTD SVG 20010904//EN"
 "http://www.w3.org/TR/2001/REC-SVG-20010904/DTD/svg10.dtd">
<svg version="1.0" xmlns="http://www.w3.org/2000/svg"
 width="256.000000pt" height="256.000000pt" viewBox="0 0 256.000000 256.000000"
 preserveAspectRatio="xMidYMid meet">
<metadata>
Created by potrace 1.11, written by Peter Selinger 2001-2013
</metadata>
<g transform="translate(0.000000,256.000000) scale(0.100000,-0.100000)"
fill="#000000" stroke="none">
<path d="M1192 2539 c-45 -22 -83 -65 -101 -111 -6 -15 -11 -120 -11 -237 -2
-225 -11 -293 -55 -388 -31 -69 -66 -116 -134 -181 -53 -49 -174 -121 -210
-123 -55 -3 54 -15 160 -18 181 -3 269 19 390 100 101 68 180 175 220 299 19
57 21 93 23 285 2 181 0 227 -13 261 -23 58 -53 91 -102 114 -57 26 -114 25
-167 -1z"/>
<path d="M1850 2221 c-83 -27 -160 -98 -188 -173 -11 -29 -19 -79 -20 -117
l-1 -66 13 47 c19 68 46 109 91 140 143 100 334 3 338 -171 2 -112 -70 -198
-184 -218 l-44 -8 40 -5 c162 -22 312 102 323 267 8 122 -52 229 -158 283 -48
25 -164 36 -210 21z"/>
<path d="M515 2196 c-59 -27 -117 -83 -148 -140 -32 -61 -31 -194 2 -255 25
-47 70 -97 112 -123 28 -17 123 -44 149 -42 8 1 29 3 45 4 29 2 29 2 -8 11
-185 43 -251 243 -123 371 81 81 216 83 296 5 36 -35 69 -98 71 -137 1 -23 2
-22 8 5 8 37 -5 119 -26 160 -30 57 -72 101 -125 130 -72 40 -179 44 -253 11z"/>
<path d="M1490 1813 c-6 -144 -5 -190 3 -242 28 -188 155 -354 330 -431 87
-38 169 -48 387 -47 204 2 205 2 251 29 67 39 93 87 93 170 1 58 -3 71 -29
109 -55 78 -76 83 -350 89 -228 5 -244 7 -314 32 -155 56 -271 162 -339 311
-12 26 -24 47 -25 47 -2 0 -5 -30 -7 -67z"/>
<path d="M156 1459 c-74 -21 -146 -111 -146 -182 0 -86 60 -172 135 -194 25
-8 119 -13 248 -13 173 -1 220 -5 279 -21 170 -47 309 -167 380 -325 11 -25
22 -44 24 -41 3 3 7 68 9 146 3 119 0 153 -16 214 -54 193 -192 338 -379 399
-56 18 -94 21 -285 23 -121 1 -233 -1 -249 -6z"/>
<path d="M1658 1085 c-2 -2 -31 -6 -66 -9 -231 -23 -438 -214 -484 -449 -9
-44 -13 -136 -13 -270 1 -185 3 -205 23 -243 77 -149 277 -151 352 -4 16 31
19 64 20 220 2 265 7 307 45 402 57 139 173 256 312 314 32 13 54 24 48 24 -5
1 -46 3 -90 6 -44 2 -94 6 -112 8 -18 2 -33 2 -35 1z"/>
<path d="M1905 919 c-22 -3 -33 -7 -25 -8 75 -11 108 -29 154 -82 89 -105 54
-269 -70 -329 -118 -57 -262 4 -301 127 l-11 38 -1 -42 c-2 -97 67 -205 162
-255 57 -30 195 -32 247 -4 64 34 106 74 136 128 26 47 29 62 29 138 0 91 -15
133 -71 199 -52 62 -166 103 -249 90z"/>
<path d="M549 896 c-119 -42 -193 -142 -198 -264 -4 -112 51 -207 156 -268 42
-25 58 -29 128 -29 134 0 223 58 275 179 30 72 23 221 -12 242 -7 5 -8 3 -3
-6 4 -7 7 -34 6 -61 -4 -180 -216 -277 -351 -161 -138 117 -89 330 85 373 28
7 28 7 -10 8 -22 0 -56 -6 -76 -13z"/>
</g>
</svg>
